HIERARCHY
ROOT Hips
{
	OFFSET 0.000000 89.005402 0.000000
	CHANNELS 6 Xposition Yposition Zposition Xrotation Yrotation Zrotation
	JOINT Spine
	{
		OFFSET 0.116900 10.681000 0.373400
		CHANNELS 3 Xrotation Yrotation Zrotation
		JOINT Spine1
		{
			OFFSET 0.000000 13.840401 0.053500
			CHANNELS 3 Xrotation Yrotation Zrotation
			JOINT Spine2
			{
				OFFSET 0.000000 14.712700 -0.366200
				CHANNELS 3 Xrotation Yrotation Zrotation
				JOINT Neck
				{
					OFFSET 0.000000 35.415497 -3.314200
					CHANNELS 3 Xrotation Yrotation Zrotation
					JOINT Head
					{
						OFFSET 0.000000 16.899200 1.218300
						CHANNELS 3 Xrotation Yrotation Zrotation
						JOINT HeadTop_End
						{
							OFFSET 0.000000 22.206207 2.192500
							CHANNELS 3 Xrotation Yrotation Zrotation
							End Site
							{
								OFFSET 0.000000 22.314178 0.000000
							}
						}
					}
				}
				JOINT LeftShoulder
				{
					OFFSET 12.896400 26.716293 -4.548400
					CHANNELS 3 Xrotation Yrotation Zrotation
					JOINT LeftArm
					{
						OFFSET 19.027000 -4.857010 -1.718400
						CHANNELS 3 Xrotation Yrotation Zrotation
						JOINT LeftForeArm
						{
							OFFSET 24.179897 0.000000 0.000000
							CHANNELS 3 Xrotation Yrotation Zrotation
							JOINT LeftHand
							{
								OFFSET 27.156403 0.000000 0.000000
								CHANNELS 3 Xrotation Yrotation Zrotation
								JOINT LeftHandIndex1
								{
									OFFSET 16.441200 0.000000 0.000000
									CHANNELS 3 Xrotation Yrotation Zrotation
									JOINT LeftHandIndex2
									{
										OFFSET 4.821899 0.000000 0.000000
										CHANNELS 3 Xrotation Yrotation Zrotation
										JOINT LeftHandIndex3
										{
											OFFSET 6.386497 0.000000 0.000000
											CHANNELS 3 Xrotation Yrotation Zrotation
											JOINT LeftHandIndex4
											{
												OFFSET 5.188988 0.000000 0.000000
												CHANNELS 3 Xrotation Yrotation Zrotation
												End Site
												{
													OFFSET -0.178703 5.185913 0.000177
												}
											}
										}
									}
								}
								JOINT LeftHandThumb1
								{
									OFFSET 6.534897 -5.032593 5.900300
									CHANNELS 3 Xrotation Yrotation Zrotation
									JOINT LeftHandThumb2
									{
										OFFSET 3.818176 -2.204422 2.204423
										CHANNELS 3 Xrotation Yrotation Zrotation
										JOINT LeftHandThumb3
										{
											OFFSET 3.252098 -1.877594 1.877601
											CHANNELS 3 Xrotation Yrotation Zrotation
											JOINT LeftHandThumb4
											{
												OFFSET 5.251778 -3.032120 3.032117
												CHANNELS 3 Xrotation Yrotation Zrotation
												End Site
												{
													OFFSET 0.000023 6.780014 0.000000
												}
											}
										}
									}
								}
							}
						}
					}
				}
				JOINT RightShoulder
				{
					OFFSET -12.896300 26.716293 -4.548400
					CHANNELS 3 Xrotation Yrotation Zrotation
					JOINT RightArm
					{
						OFFSET -19.027000 -4.857010 -1.718400
						CHANNELS 3 Xrotation Yrotation Zrotation
						JOINT RightForeArm
						{
							OFFSET -24.179897 0.000000 0.000000
							CHANNELS 3 Xrotation Yrotation Zrotation
							JOINT RightHand
							{
								OFFSET -27.156403 0.000000 0.000000
								CHANNELS 3 Xrotation Yrotation Zrotation
								JOINT RightHandThumb1
								{
									OFFSET -6.591202 -4.852203 5.988100
									CHANNELS 3 Xrotation Yrotation Zrotation
									JOINT RightHandThumb2
									{
										OFFSET -3.818176 -2.204422 2.204423
										CHANNELS 3 Xrotation Yrotation Zrotation
										JOINT RightHandThumb3
										{
											OFFSET -3.252098 -1.877594 1.877601
											CHANNELS 3 Xrotation Yrotation Zrotation
											JOINT RightHandThumb4
											{
												OFFSET -5.251778 -3.032120 3.032117
												CHANNELS 3 Xrotation Yrotation Zrotation
												End Site
												{
													OFFSET -0.000023 6.780014 0.000000
												}
											}
										}
									}
								}
								JOINT RightHandIndex1
								{
									OFFSET -16.029404 0.000000 0.000000
									CHANNELS 3 Xrotation Yrotation Zrotation
									JOINT RightHandIndex2
									{
										OFFSET -5.213303 0.000000 0.000000
										CHANNELS 3 Xrotation Yrotation Zrotation
										JOINT RightHandIndex3
										{
											OFFSET -6.386528 0.000000 0.000000
											CHANNELS 3 Xrotation Yrotation Zrotation
											JOINT RightHandIndex4
											{
												OFFSET -5.189026 0.000000 0.000000
												CHANNELS 3 Xrotation Yrotation Zrotation
												End Site
												{
													OFFSET 0.236702 5.183624 0.001972
												}
											}
										}
									}
								}
							}
						}
					}
				}
			}
		}
	}
	JOINT LeftUpLeg
	{
		OFFSET 14.073000 -7.904099 -1.463000
		CHANNELS 3 Xrotation Yrotation Zrotation
		JOINT LeftLeg
		{
			OFFSET -0.109806 -34.073280 4.093200
			CHANNELS 3 Xrotation Yrotation Zrotation
			JOINT LeftFoot
			{
				OFFSET 0.109806 -29.899420 -6.319000
				CHANNELS 3 Xrotation Yrotation Zrotation
				JOINT LeftToeBase
				{
					OFFSET 1.551100 -14.988700 20.535801
					CHANNELS 3 Xrotation Yrotation Zrotation
					JOINT LeftToe_End
					{
						OFFSET 0.221200 0.570800 13.248301
						CHANNELS 3 Xrotation Yrotation Zrotation
						End Site
						{
							OFFSET 0.000000 13.262435 0.000000
						}
					}
				}
			}
		}
	}
	JOINT RightUpLeg
	{
		OFFSET -13.839300 -7.904099 -1.463000
		CHANNELS 3 Xrotation Yrotation Zrotation
		JOINT RightLeg
		{
			OFFSET 0.109694 -34.073219 4.093300
			CHANNELS 3 Xrotation Yrotation Zrotation
			JOINT RightFoot
			{
				OFFSET -0.109694 -29.899384 -6.319200
				CHANNELS 3 Xrotation Yrotation Zrotation
				JOINT RightToeBase
				{
					OFFSET -1.551100 -14.988700 20.535801
					CHANNELS 3 Xrotation Yrotation Zrotation
					JOINT RightToe_End
					{
						OFFSET -0.221200 0.570900 13.248299
						CHANNELS 3 Xrotation Yrotation Zrotation
						End Site
						{
							OFFSET 0.000000 13.262440 0.000000
						}
					}
				}
			}
		}
	}
}
MOTION
Frames: 5
Frame Time: 0.033333
-0.103845 35.493164 -0.714096 72.803628 -1.979511 -1.103349 0.745222 -0.155909 0.404368 1.965451 -0.301147 0.710686 1.965181 -0.308238 0.708061 -9.417398 -0.708979 3.215773 -0.298803 2.343274 -4.351172 -0.000002 -0.000000 -0.000000 1.104836 -1.012235 0.069370 -50.664489 -52.082303 -58.484997 0.000005 -12.284833 0.000002 10.125152 -17.786122 86.445640 -5.631839 -12.014753 -21.413731 0.096102 1.057925 -10.381339 0.088574 -1.015957 9.965369 -0.000001 0.000000 -0.000001 -1.184896 3.317059 10.820550 10.126211 -4.458104 7.651882 1.077485 -7.608443 23.794146 -0.000001 0.000000 -0.000001 1.717344 3.620551 13.877730 -56.866775 62.157829 57.490822 -0.000001 12.136345 -0.000008 22.328568 5.684130 -82.294777 -0.201458 3.035647 -7.196448 8.074872 6.487020 -14.042696 5.826163 15.094083 -37.811449 -0.000000 -0.000001 -0.000001 -3.832607 7.761187 22.844333 0.000002 0.000003 -0.000004 0.115358 -1.031206 12.765507 -0.000000 -0.000000 -0.000003 10.256975 11.781556 1.875552 -2.239228 7.443902 1.955431 -40.523140 5.599094 -9.050632 -30.760781 1.314802 -9.722269 -0.000000 0.000000 -0.000000 3.640188 -7.863286 -2.875947 9.390746 -0.100173 -1.488241 -37.401508 -5.899861 10.077658 -41.870682 -1.913385 8.439962 -0.000000 -0.000000 0.000000 
-0.091880 35.480766 -0.704964 72.780918 -1.983181 -1.096948 0.742097 -0.157446 0.408266 1.960561 -0.301352 0.719202 1.960284 -0.307955 0.716641 -9.400754 -0.710398 3.217577 -0.255394 2.344360 -4.360011 -0.000001 0.000000 0.000000 1.099527 -1.008078 0.052384 -50.738282 -52.077822 -58.590906 -0.000002 -12.171617 -0.000003 10.160111 -17.841714 86.460209 -5.631838 -12.014754 -21.413727 0.096100 1.057926 -10.381340 0.088574 -1.015958 9.965370 0.000000 0.000001 -0.000000 -1.184896 3.317061 10.820551 10.126213 -4.458102 7.651884 1.077485 -7.608440 23.794146 0.000001 0.000001 0.000000 1.715130 3.648322 13.881962 -56.810553 62.092539 57.447772 -0.000005 12.169775 0.000015 22.401106 5.673145 -82.271958 -0.201458 3.035646 -7.196447 8.074872 6.487021 -14.042698 5.826163 15.094083 -37.811446 0.000000 -0.000001 -0.000001 -3.832605 7.761188 22.844329 0.000001 0.000003 0.000001 0.115377 -1.031304 12.766453 0.000000 -0.000001 0.000004 10.312455 11.779619 1.856525 -2.271221 7.415755 1.950892 -40.513089 5.597626 -9.046297 -30.766164 1.317255 -9.733491 0.000000 0.000001 0.000001 3.673613 -7.891155 -2.903081 9.386863 -0.064308 -1.480004 -37.392926 -5.902467 10.083918 -41.890281 -1.916401 8.440049 -0.000000 -0.000001 0.000000 
-0.080118 35.464993 -0.688759 72.778514 -1.964302 -1.089661 0.735908 -0.159236 0.410271 1.947110 -0.303671 0.720989 1.946809 -0.311170 0.718501 -9.398017 -0.714426 3.238136 -0.244033 2.366843 -4.384568 -0.000002 -0.000000 -0.000000 1.100719 -1.007421 0.061375 -50.751553 -52.001741 -58.665267 0.000008 -12.221568 -0.000006 10.228239 -17.817848 86.464724 -5.631839 -12.014754 -21.413727 0.096101 1.057925 -10.381339 0.088573 -1.015958 9.965368 -0.000001 0.000001 -0.000000 -1.184896 3.317059 10.820550 10.126212 -4.458101 7.651886 1.077485 -7.608442 23.794147 -0.000001 0.000001 0.000003 1.718521 3.619111 13.912773 -56.706720 62.023186 57.380631 0.000003 12.299978 -0.000004 22.476407 5.626553 -82.234842 -0.201458 3.035647 -7.196447 8.074872 6.487020 -14.042694 5.826163 15.094081 -37.811449 0.000000 0.000000 0.000001 -3.832605 7.761186 22.844331 0.000001 0.000002 -0.000001 0.115392 -1.031373 12.767418 0.000001 0.000000 -0.000003 10.336835 11.777647 1.837756 -2.283007 7.401659 1.947102 -40.495713 5.592986 -9.037260 -30.787624 1.319461 -9.740697 0.000000 0.000001 0.000000 3.690383 -7.913560 -2.929704 9.389412 -0.047498 -1.475082 -37.372312 -5.904031 10.093064 -41.941019 -1.922311 8.433603 0.000000 0.000001 -0.000000 
-0.071429 35.449844 -0.665863 72.770932 -1.946724 -1.087315 0.732238 -0.161656 0.412040 1.937783 -0.309316 0.724042 1.937501 -0.317247 0.721630 -9.386612 -0.712936 3.244161 -0.243277 2.403093 -4.390423 0.000001 -0.000000 -0.000000 1.105775 -1.016371 0.080330 -50.686851 -51.900709 -58.672206 -0.000004 -12.347937 0.000004 10.281848 -17.759634 86.473630 -5.631838 -12.014755 -21.413727 0.096102 1.057925 -10.381339 0.088571 -1.015958 9.965366 0.000001 0.000000 -0.000001 -1.184895 3.317062 10.820549 10.126212 -4.458102 7.651885 1.077485 -7.608441 23.794151 0.000000 0.000000 0.000003 1.721508 3.618885 14.025296 -56.422574 62.012858 57.104251 -0.000008 12.490034 0.000005 22.525394 5.555305 -82.178118 -0.201458 3.035649 -7.196447 8.074872 6.487021 -14.042695 5.826164 15.094081 -37.811449 -0.000000 -0.000000 -0.000002 -3.832606 7.761185 22.844329 0.000002 0.000002 -0.000001 0.115408 -1.031442 12.768417 0.000000 -0.000001 0.000001 10.340026 11.785152 1.836652 -2.239815 7.361080 1.940608 -40.477351 5.590716 -9.030538 -30.813398 1.331020 -9.784214 -0.000001 -0.000001 0.000001 3.687931 -7.921655 -2.952548 9.442963 -0.028565 -1.476097 -37.341160 -5.909180 10.108929 -42.041249 -1.928661 8.418224 0.000000 0.000000 0.000000 
-0.064386 35.436584 -0.636848 72.735470 -1.943024 -1.092175 0.730692 -0.162930 0.420259 1.936057 -0.319056 0.740081 1.935762 -0.327170 0.737614 -9.355742 -0.698116 3.202797 -0.221645 2.405271 -4.379645 0.000000 -0.000000 -0.000000 1.112274 -1.073421 0.057543 -50.522568 -51.785791 -58.569316 0.000010 -12.451573 -0.000007 10.317931 -17.720566 86.489879 -5.631839 -12.014753 -21.413727 0.096101 1.057925 -10.381339 0.088570 -1.015958 9.965366 -0.000001 0.000001 -0.000002 -1.184896 3.317061 10.820550 10.126212 -4.458105 7.651886 1.077485 -7.608439 23.794146 0.000001 0.000001 0.000001 1.722605 3.694345 14.208413 -56.156723 62.000366 56.793006 -0.000001 12.596239 -0.000018 22.666816 5.519487 -82.110137 -0.201458 3.035648 -7.196448 8.074872 6.487020 -14.042699 5.826162 15.094079 -37.811446 0.000000 0.000001 -0.000001 -3.832606 7.761187 22.844326 0.000001 0.000003 0.000001 0.115429 -1.031531 12.769464 -0.000001 -0.000000 -0.000001 10.365824 11.799767 1.843670 -2.177373 7.328651 1.940626 -40.451331 5.600173 -9.049673 -30.854608 1.343389 -9.830718 -0.000000 0.000000 -0.000000 3.700794 -7.934812 -2.978856 9.515173 0.019367 -1.473477 -37.271010 -5.923109 10.152297 -42.196793 -1.937479 8.391662 0.000000 0.000000 -0.000000 
